<?xml version="1.0" encoding="UTF-8" standalone="no"?>
<!-- Created with Inkscape (http://www.inkscape.org/) -->

<svg
   xmlns:dc="http://purl.org/dc/elements/1.1/"
   xmlns:cc="http://creativecommons.org/ns#"
   xmlns:rdf="http://www.w3.org/1999/02/22-rdf-syntax-ns#"
   xmlns:svg="http://www.w3.org/2000/svg"
   xmlns="http://www.w3.org/2000/svg"
   xmlns:sodipodi="http://sodipodi.sourceforge.net/DTD/sodipodi-0.dtd"
   xmlns:inkscape="http://www.inkscape.org/namespaces/inkscape"
   width="48.539673mm"
   height="7.4104004mm"
   viewBox="0 0 48.539673 7.4104004"
   version="1.1"
   id="svg8"
   inkscape:version="0.92.3 (2405546, 2018-03-11)"
   sodipodi:docname="drawing.svg">
  <defs
     id="defs2" />
  <sodipodi:namedview
     id="base"
     pagecolor="#ffffff"
     bordercolor="#666666"
     borderopacity="1.0"
     inkscape:pageopacity="0.0"
     inkscape:pageshadow="2"
     inkscape:zoom="5.6"
     inkscape:cx="66.227949"
     inkscape:cy="6.7129419"
     inkscape:document-units="mm"
     inkscape:current-layer="layer1"
     showgrid="false"
     inkscape:window-width="1680"
     inkscape:window-height="987"
     inkscape:window-x="1432"
     inkscape:window-y="-8"
     inkscape:window-maximized="1" />
  <metadata
     id="metadata5">
    <rdf:RDF>
      <cc:Work
         rdf:about="">
        <dc:format>image/svg+xml</dc:format>
        <dc:type
           rdf:resource="http://purl.org/dc/dcmitype/StillImage" />
        <dc:title></dc:title>
      </cc:Work>
    </rdf:RDF>
  </metadata>
  <g
     inkscape:label="Layer 1"
     inkscape:groupmode="layer"
     id="layer1"
     transform="translate(-30.754859,-104.38126)">
    <g
       aria-label="infomaze"
       style="font-style:normal;font-variant:normal;font-weight:normal;font-stretch:normal;font-size:10.58333302px;line-height:1.25;font-family:'Zilap Monograma';-inkscape-font-specification:'Zilap Monograma';letter-spacing:0px;word-spacing:0px;fill:#dcddde;fill-opacity:1;stroke:none;stroke-width:0.26458332"
       id="text12">
      <path
         d="m 32.775407,104.38642 v 3.01274 l -1.229899,1.64331 v 1.95854 h 0.434082 v -1.82935 l 0.795817,-1.06453 v 3.68453 h -2.020548 v -3.01274 l 1.224731,-1.64331 v -1.95854 h -0.434082 v 1.83452 l -0.790649,1.06453 v -3.6897 z"
         style="font-style:normal;font-variant:normal;font-weight:normal;font-stretch:normal;font-family:'Zilap Monograma';-inkscape-font-specification:'Zilap Monograma';stroke-width:0.26458332;fill:#dcddde;fill-opacity:1"
         id="path14" />
      <path
         d="m 37.953386,111.79166 q -0.26355,-0.42892 -0.532268,-0.85783 -1.415934,-2.2841 -2.837036,-4.57337 v 4.63538 h 0.434082 v -3.0179 l 0.79065,1.2764 v 2.53732 h -2.015381 v -7.4104 h 0.490926 q 1.116211,1.79317 2.227254,3.58634 0.940511,1.51412 1.875855,3.02824 h 0.764811 v -5.81877 h -0.434082 v 5.43636 l -0.728638,-1.18339 q -0.728638,-1.16788 -1.452108,-2.33577 -0.837158,-1.35392 -1.679484,-2.71301 h 0.925008 l 2.144572,3.45198 v -3.45198 h 2.020549 v 7.4104 z"
         style="font-style:normal;font-variant:normal;font-weight:normal;font-stretch:normal;font-family:'Zilap Monograma';-inkscape-font-specification:'Zilap Monograma';stroke-width:0.26458332;fill:#dcddde;fill-opacity:1"
         id="path16" />
      <path
         d="m 45.312109,104.38642 v 1.98438 H 42.98667 v 0.28422 h -0.79065 v -1.08004 h 2.32544 v -0.39791 h -2.759522 v 1.92753 q 0.160197,-0.0155 0.346232,-0.0155 l 2.707845,0.0103 v 1.98437 h -3.0024 q -0.02067,0 -0.03617,0.0155 -0.0155,0.0155 -0.0155,0.0362 v 1.86552 h 0.434082 v -1.48828 h 0.79065 v 2.27893 h -2.020549 v -2.65617 q 0,-0.3359 0.253215,-0.59945 0.26355,-0.24805 0.594279,-0.24805 h 2.211751 v -0.3979 h -1.09554 q -0.449585,0.005 -1.095541,0.005 -0.248046,0 -0.475423,0.093 -0.217041,0.0879 -0.392741,0.25322 v -3.85507 z"
         style="font-style:normal;font-variant:normal;font-weight:normal;font-stretch:normal;font-family:'Zilap Monograma';-inkscape-font-specification:'Zilap Monograma';stroke-width:0.26458332;fill:#dcddde;fill-opacity:1"
         id="path18" />
      <path
         d="m 45.368953,107.94176 h 0.0052 v -0.0982 l 0.0052,-0.005 v -0.062 l 0.0052,-0.005 v -0.0517 l 0.0052,-0.005 v -0.0155 q 0.165365,-1.32808 1.064534,-2.23242 0.506429,-0.50643 1.178223,-0.79582 0.671794,-0.28938 1.441772,-0.28938 0.764812,0 1.436605,0.28938 0.671794,0.28939 1.18339,0.79582 0.50643,0.50643 0.79065,1.18339 0.289388,0.6718 0.289388,1.43661 0,0.76481 -0.289388,1.44177 -0.28422,0.67179 -0.79065,1.17822 -0.511596,0.50643 -1.18339,0.79582 -0.671793,0.28939 -1.436605,0.28939 -0.769978,0 -1.441772,-0.28939 -0.671794,-0.28939 -1.178223,-0.79582 -0.733805,-0.7338 -0.987019,-1.77767 h 0.816487 q 0.222209,0.70797 0.728638,1.2144 0.403076,0.40307 0.930176,0.63045 0.527099,0.22221 1.131713,0.22221 0.599447,0 1.126547,-0.22221 0.532267,-0.22738 0.930175,-0.63045 0.397909,-0.39791 0.625285,-0.92501 0.227377,-0.5271 0.227377,-1.13171 0,-0.60462 -0.227377,-1.13172 -0.227376,-0.5271 -0.625285,-0.92501 -0.397908,-0.3979 -0.930175,-0.62528 -0.5271,-0.22738 -1.126547,-0.22738 -0.604614,0 -1.131713,0.22738 -0.5271,0.22738 -0.930176,0.62528 -0.676961,0.67697 -0.826823,1.66915 h 1.260905 q -0.04651,0.18604 -0.04651,0.38758 0,0.69246 0.490926,1.18339 0.485759,0.49092 1.18339,0.49092 0.692465,0 1.183391,-0.49092 0.485758,-0.49093 0.485758,-1.18339 0,-0.69247 -0.485758,-1.18339 -0.490926,-0.49093 -1.183391,-0.49093 -0.697631,0 -1.18339,0.49093 -0.155029,0.15503 -0.268717,0.34623 h -0.868164 q 0.191203,-0.52193 0.573608,-0.90434 h 0.0052 q 0.335897,-0.34106 0.780314,-0.53227 0.449585,-0.1912 0.961181,-0.1912 0.506429,0 0.956014,0.1912 0.449585,0.19121 0.785482,0.53227 0.335897,0.3359 0.5271,0.78548 0.19637,0.44442 0.19637,0.95602 0,0.51159 -0.19637,0.96118 -0.191203,0.44442 -0.5271,0.78031 -0.335897,0.34107 -0.785482,0.53227 -0.449585,0.1912 -0.956014,0.1912 -0.511596,0 -0.961181,-0.1912 -0.444417,-0.1912 -0.780314,-0.53227 h -0.0052 q -0.54777,-0.54777 -0.687296,-1.34359 h -1.25057 v -0.0258 l -0.0052,-0.005 v -0.0517 l -0.0052,-0.005 v -0.062 l -0.0052,-0.005 v -0.093 l -0.0052,-0.005 z"
         style="font-style:normal;font-variant:normal;font-weight:normal;font-stretch:normal;font-family:'Zilap Monograma';-inkscape-font-specification:'Zilap Monograma';stroke-width:0.26458332;fill:#dcddde;fill-opacity:1"
         id="path20" />
      <path
         d="m 60.11224,105.17707 h -0.697632 l -2.268596,4.53203 -1.29191,-2.57349 q -0.687297,-1.37459 -1.379761,-2.75435 h 0.888835 l 1.782836,3.5605 1.77767,-3.5605 h 1.979207 v 7.4104 h -2.015381 v -0.39791 l -0.0052,-2.44946 -1.069703,2.10323 h -1.333251 l -1.33842,-2.64067 -0.961182,-1.88102 v 4.47001 h 0.434082 l 0.0052,-2.65617 0.785482,1.56063 v 1.89136 h -2.015381 v -7.4104 h 0.594279 q 1.483113,2.94555 2.98173,5.87561 h 0.361735 l 2.34611,-4.59921 v 5.33818 h 0.43925 z"
         style="font-style:normal;font-variant:normal;font-weight:normal;font-stretch:normal;font-family:'Zilap Monograma';-inkscape-font-specification:'Zilap Monograma';stroke-width:0.26458332;fill:#dcddde;fill-opacity:1"
         id="path22" />
      <path
         d="m 65.817318,104.38642 3.116089,7.40524 h -2.216919 q -0.1757,-0.44442 -0.346232,-0.88884 l -0.206706,-0.5271 h -3.472656 l -0.258382,0.62529 h 0.490926 l 0.08785,-0.22738 h 0.847493 q -0.191203,0.51677 -0.408244,1.01803 h -2.206583 l 0.91984,-2.20659 h 4.542358 l 0.547771,1.41594 h 0.485758 l -2.449463,-5.82394 h -0.428914 l -1.343587,3.21428 h 1.855184 l -0.289388,-0.68213 -0.124024,0.28422 h -0.852661 l 0.609782,-1.44694 0.361735,-0.85783 0.366903,0.85783 0.888834,2.08773 0.237712,0.55293 h -4.237468 l 1.999878,-4.80074 z"
         style="font-style:normal;font-variant:normal;font-weight:normal;font-stretch:normal;font-family:'Zilap Monograma';-inkscape-font-specification:'Zilap Monograma';stroke-width:0.26458332;fill:#dcddde;fill-opacity:1"
         id="path24" />
      <path
         d="m 69.40883,106.36563 v -1.97921 h 4.614705 v 0.79065 h -3.824056 v 0.39791 h 3.824056 v 0.41858 l -2.211751,3.81372 H 74.1889 v 1.98438 h -4.924764 v -1.54513 l 2.030884,-3.53983 h 0.909505 l -2.14974,3.74137 v 0.55294 h 3.343465 v -0.39791 h -2.955891 l 0.341064,-0.59428 2.108398,-3.64319 z"
         style="font-style:normal;font-variant:normal;font-weight:normal;font-stretch:normal;font-family:'Zilap Monograma';-inkscape-font-specification:'Zilap Monograma';stroke-width:0.26458332;fill:#dcddde;fill-opacity:1"
         id="path26" />
      <path
         d="m 79.29453,104.38642 v 1.98438 h -2.325439 v 0.28422 h -0.795817 v -1.08004 h 2.330607 v -0.39791 h -2.764689 v 1.92753 q 0.180867,-0.0207 0.392741,-0.0207 l 2.666503,0.0155 v 1.9792 h -3.0024 q -0.02067,0 -0.03617,0.0155 -0.0155,0.0155 -0.02067,0.0413 v 1.86552 h 2.764689 v -0.39791 h -2.330607 v -1.09037 h 0.795817 v 0.29455 h 2.325439 v 1.98438 h -4.345988 v -2.65617 q 0,-0.3359 0.253215,-0.59945 0.26355,-0.24805 0.594279,-0.24805 h 2.211751 v -0.3979 h -2.191081 q -0.248047,0 -0.475423,0.093 -0.222209,0.093 -0.392741,0.25839 v -3.85507 z"
         style="font-style:normal;font-variant:normal;font-weight:normal;font-stretch:normal;font-family:'Zilap Monograma';-inkscape-font-specification:'Zilap Monograma';stroke-width:0.26458332;fill:#dcddde;fill-opacity:1"
         id="path28" />
    </g>
  </g>
</svg>
